<svg width="201" height="39" viewBox="0 0 201 39" fill="none" xmlns="http://www.w3.org/2000/svg">
<path d="M197.067 13.235C197.188 13.073 197.31 13.073 197.431 13.1945C198.361 13.8427 199.655 14.815 200.747 15.7062C200.868 15.8278 200.909 15.9493 200.828 16.1113C200.585 17.0026 200.424 17.4077 199.615 17.4077H191.648V37.5015C191.648 38.5954 190.434 38.96 189.261 38.96H188.897C188.736 38.96 188.614 38.8384 188.614 38.6764V17.4077H182.224C182.063 17.4077 181.941 17.3267 181.901 17.1647L181.416 15.4226C181.375 15.2606 181.456 15.0986 181.658 15.0986H188.614V1.40559C188.614 1.24354 188.736 1.16252 188.897 1.16252L192.942 1.48661C193.104 1.48661 193.225 1.64866 193.184 1.81071C192.982 2.8235 192.901 3.5122 191.648 3.75527V15.0986H195.409L197.067 13.235ZM163.702 8.17105C163.661 8.009 163.742 7.84695 163.944 7.84695H172.559C172.437 6.06444 171.224 3.8768 169.768 2.29685C169.687 2.17531 169.647 2.05378 169.647 1.93224V1.48661C169.647 1.36508 169.687 1.24354 169.809 1.16252L169.97 1.04098C170.092 0.919448 170.213 0.959962 170.334 1.00047C176.037 3.06657 176.32 6.46956 174.945 7.84695H178.261L179.919 6.02393C180.041 5.86188 180.162 5.86188 180.283 5.98341C181.213 6.59109 182.467 7.60388 183.559 8.49514C183.68 8.61668 183.721 8.73821 183.68 8.90026C183.438 9.79152 183.236 10.1966 182.467 10.1966H164.511C164.349 10.1966 164.228 10.1156 164.187 9.95357L163.702 8.17105ZM165.522 18.7851C165.481 18.6231 165.562 18.461 165.764 18.461H176.603L178.099 16.8406C178.221 16.6785 178.342 16.6785 178.463 16.8C179.353 17.4077 180.526 18.2585 181.537 19.1092C181.658 19.2308 181.699 19.3523 181.618 19.5143C181.375 20.4056 181.213 20.8107 180.485 20.8107H166.331C166.169 20.8107 166.047 20.7297 166.007 20.5676L165.522 18.7851ZM165.522 13.4781C165.481 13.316 165.562 13.154 165.764 13.154H176.603L178.099 11.493C178.221 11.331 178.342 11.331 178.463 11.4525C179.353 12.0197 180.526 12.9514 181.537 13.7617C181.658 13.8832 181.699 14.0047 181.618 14.1668C181.375 15.058 181.213 15.4632 180.485 15.4632H166.331C166.169 15.4632 166.047 15.3821 166.007 15.2201L165.522 13.4781ZM166.411 38.4333C166.29 38.4333 166.169 38.3118 166.169 38.1497V23.0794C166.169 22.8768 166.29 22.7553 166.492 22.8363L169.121 23.8086H176.846L178.099 22.6337C178.221 22.5122 178.342 22.5122 178.504 22.6337L181.82 24.9024C181.982 24.9834 181.982 25.1455 181.86 25.3075C181.213 26.1583 180.89 26.3203 179.96 26.5634V35.8C179.96 35.9216 179.96 36.0026 179.919 36.1241C179.636 37.0154 178.382 37.1774 177.574 37.1774H177.331C177.169 37.1774 177.048 37.0559 177.048 36.8939V35.1924H169V37.1369C169 38.1902 167.706 38.4333 166.614 38.4333H166.411ZM169 32.8427H177.048V26.1583H169V32.8427Z" fill="black"/>
<path d="M153.187 5.37582C153.308 5.21377 153.429 5.21377 153.551 5.3353C154.521 5.94298 155.856 6.95577 156.948 7.84703C157.069 7.96857 157.11 8.0901 157.069 8.25215C156.827 9.14341 156.624 9.54852 155.856 9.54852H146.554V14.3694H152.823L154.562 12.4654C154.683 12.3033 154.804 12.3033 154.926 12.4249C155.856 13.073 157.191 14.0858 158.323 14.9771C158.444 15.0986 158.485 15.2202 158.444 15.3822C158.202 16.2735 157.999 16.6786 157.191 16.6786H151.084L152.823 16.8406C152.985 16.8406 153.106 16.9622 153.065 17.1647C152.944 18.218 152.742 18.7852 151.65 19.0283V21.1754H153.429L155.047 19.3524C155.168 19.1903 155.29 19.1903 155.411 19.3118C156.26 19.9195 157.474 20.8918 158.444 21.7831C158.566 21.8641 158.606 21.9856 158.606 22.1072C158.525 23.0389 158.283 23.5251 157.474 23.5251H151.65V34.9089C151.65 37.056 151.205 38.5144 147.403 38.9195C147.201 38.96 147.08 38.879 147.04 38.717C146.878 38.0688 147.04 37.7852 146.109 37.2585C145.624 37.0155 144.573 36.7724 142.712 36.5698C142.51 36.5293 142.429 36.4078 142.429 36.2458V34.9899C142.429 34.8278 142.55 34.7063 142.712 34.7468C144.856 34.8684 147.242 35.0304 147.808 35.0304C148.657 35.0304 148.657 35.0304 148.657 34.7468V23.5251H134.624C134.462 23.5251 134.341 23.444 134.3 23.282L133.815 21.4995C133.774 21.3374 133.855 21.1754 134.057 21.1754H148.657V16.6786H134.421C134.26 16.6786 134.138 16.5976 134.098 16.4355L133.613 14.6935C133.572 14.5315 133.653 14.3694 133.855 14.3694H143.561V9.54852H135.635C135.473 9.54852 135.352 9.4675 135.311 9.30545L134.826 7.56345C134.785 7.4014 134.866 7.23935 135.069 7.23935H143.561V1.40567C143.561 1.24362 143.683 1.1626 143.845 1.1626L147.848 1.44618C148.01 1.44618 148.131 1.60822 148.091 1.77027C147.97 2.78306 147.808 3.51228 146.554 3.75535V7.23935H151.569L153.187 5.37582ZM122.491 35.8001C122.329 35.8001 122.208 35.6786 122.208 35.5165V3.83637C122.208 3.63381 122.37 3.55279 122.531 3.63381L125.564 4.6466H130.175L131.429 3.39074C131.55 3.26921 131.671 3.26921 131.833 3.39074L135.028 5.57837C135.19 5.69991 135.19 5.82145 135.109 5.98349C134.664 6.99629 134.26 7.11782 133.289 7.4014V32.4377C133.289 32.5592 133.289 32.6402 133.249 32.7617C132.965 33.6935 131.712 33.9366 130.862 33.9366H130.66C130.498 33.9366 130.377 33.8151 130.377 33.653V31.2223H125.12V34.4227C125.12 35.395 124.028 35.8001 122.734 35.8001H122.491ZM125.12 28.8726H130.377V19.0688H125.12V28.8726ZM125.12 16.7596H130.377V6.99628H125.12V16.7596ZM136.646 25.024C136.484 24.9025 136.524 24.7404 136.646 24.6189L137.212 24.1733C137.333 24.0517 137.455 24.0922 137.616 24.1327C146.716 27.6168 144.087 33.6125 141.175 32.2351C141.014 32.1946 140.973 32.1136 140.973 31.992C140.65 29.9259 138.587 26.8875 136.646 25.024Z" fill="black"/>
<path d="M95.637 7.36095C95.6775 7.19891 95.7988 7.11788 95.9606 7.1584C96.6885 7.23942 97.4165 7.36095 98.1445 7.56351C100.005 8.04965 101.784 9.62961 101.784 10.9665C101.784 11.6147 101.542 11.9793 101.097 12.2629C100.854 12.4249 100.611 12.5465 100.45 12.668C100.328 12.749 100.288 12.83 100.247 12.9516C100.045 13.2757 99.8431 13.7213 99.6004 14.2074C99.4791 14.491 99.196 15.0177 99.1555 15.0987C97.0525 19.3929 93.9384 25.6723 91.6737 29.5614C96.5672 28.9942 103.806 28.0624 108.053 27.2927C106.84 25.0241 105.02 22.8769 102.755 20.9324C102.593 20.8108 102.553 20.6893 102.714 20.5273L103.604 19.636C103.726 19.5145 103.847 19.5145 103.968 19.5955C108.538 22.4718 113.796 28.3865 113.796 32.8833C113.796 33.9366 113.108 34.99 112.016 34.99C111.127 34.99 110.803 33.9772 110.156 32.2757C109.994 31.668 109.711 30.8578 109.185 29.7234C105.829 30.4526 101.299 31.2224 97.3761 31.9111C94.1002 32.4377 91.1883 32.9239 89.692 33.2885C89.2067 33.3695 89.0044 33.491 88.5191 33.7746C88.0338 34.0987 87.6698 34.3823 87.3059 34.3823C86.6183 34.3823 84.5962 33.41 83.9896 31.5059C83.8278 30.9388 83.7874 30.1285 83.9087 29.6019C83.9491 29.4398 84.03 29.3588 84.1513 29.3183L84.3131 29.2373C84.4344 29.1563 84.5558 29.1563 84.7175 29.2373C85.3242 29.6829 86.0521 29.9665 86.7801 29.9665C87.1441 29.9665 87.9125 29.926 88.7213 29.845C91.8354 24.4974 97.4165 12.1413 97.4165 10.5614C97.4165 10.1158 96.8907 9.5891 95.3539 9.02194C95.1517 8.94091 95.1113 8.77886 95.1517 8.61681L95.637 7.36095Z" fill="black"/>
<path d="M42.9001 18.218C43.0619 18.1774 43.1832 18.218 43.2641 18.3395C44.1134 19.5548 44.72 20.7702 46.5399 20.7702C49.1687 20.7702 56.9741 20.284 61.9081 19.96L64.2133 19.8384C65.1031 19.7979 65.7906 19.7574 66.0737 19.7169C67.287 19.6359 68.1363 19.5548 68.8642 19.4738C68.9855 19.4738 69.1878 19.4333 69.2282 19.4333C69.9966 19.3523 70.5224 19.3118 71.0481 19.3118C73.0702 19.3118 74.6475 19.8384 74.6475 21.3779C74.6475 22.2691 74.2835 22.9578 72.6658 22.9578C72.0592 22.9578 71.4525 22.9578 70.765 22.9173H69.39C68.7833 22.8768 68.0958 22.8768 67.3274 22.8768C64.6986 22.8768 53.5769 23.4845 50.5842 23.8491C49.5327 23.9706 49.0069 24.0922 48.4812 24.2137L48.0767 24.3352C47.3488 24.4973 47.0252 24.6188 46.4995 24.6188C45.3266 24.6188 43.4663 22.8768 42.6574 21.2158C42.3339 20.4056 42.3743 19.4738 42.2935 18.6636C42.2935 18.5015 42.3743 18.38 42.5361 18.3395L42.9001 18.218Z" fill="black"/>
<path d="M29.6753 9.83205C28.8665 8.77875 28.0576 7.88749 26.0355 6.42907C25.8737 6.30753 25.8737 6.14548 25.9546 6.02395L26.6421 5.05167C26.723 4.93013 26.8848 4.88962 27.0466 4.97064C29.0283 5.8619 30.1606 6.67214 31.2121 7.64442C32.1828 8.53568 32.749 9.38642 32.749 10.5613C32.749 11.3715 32.4254 12.0602 31.6166 12.0602C31.2526 12.0602 30.8886 11.5335 30.3224 10.6828C30.2415 10.5613 30.2011 10.5208 30.1606 10.4397C30.0798 10.3182 29.7967 9.9941 29.6753 9.83205ZM0.961113 23.4035C0.839785 23.2414 0.839785 23.1199 0.961113 22.9984C7.51281 17.4077 12.1233 9.67 12.1233 7.84698C12.1233 7.32033 11.7188 6.87469 10.2629 5.90241C10.1011 5.78088 10.0607 5.65934 10.1416 5.4973L10.6673 4.40348C10.7482 4.28194 10.8695 4.20092 11.0313 4.24143C12.0424 4.44399 12.8512 4.64655 13.7005 5.01116C14.7925 5.57832 16.3293 6.8747 16.3293 7.928C16.3293 8.69772 16.0462 8.94079 15.6013 9.3054C15.5204 9.38642 15.4395 9.46745 15.3182 9.50796C15.1969 9.58898 15.0756 9.71052 14.9947 9.79154C14.0241 11.4525 13.0939 12.992 12.1233 14.3694C12.5277 14.4504 12.9726 14.4909 13.4174 14.4909C15.7226 14.4909 24.7818 13.1945 26.9657 12.8704C28.0576 12.7489 28.6643 12.5058 28.9069 12.4248C29.2709 12.2628 29.4731 12.1817 29.7967 12.1817C31.1313 12.1817 33.3556 12.8704 33.3556 14.4099C33.3556 15.2606 33.2747 15.9493 31.657 15.9493H30.8886C29.554 15.9493 27.6128 15.9493 26.0355 16.0303C25.0244 16.1114 23.4876 16.2329 21.8699 16.4355C22.7597 17.0026 23.245 17.6508 23.245 18.299C23.245 18.7851 23.1236 19.1498 22.7597 19.4738C22.4766 19.7979 22.2743 20.0005 22.1935 20.2031C19.6051 26.6444 14.7925 33.0048 6.98705 37.5016C6.82528 37.5826 6.70396 37.5826 6.58263 37.4205L5.73334 36.4483C5.61201 36.3267 5.61201 36.1647 5.77378 36.0431C13.9836 30.7361 19.2412 21.864 19.2412 18.1775C19.2412 17.8129 18.9176 17.5293 17.9874 16.8406C17.4212 16.9621 16.9359 17.0026 16.5719 17.0431C16.208 17.0837 16.0462 17.1242 15.8035 17.1647C15.3182 17.2052 14.8734 17.2862 14.6307 17.3672C13.9432 17.4888 13.5388 17.5698 13.0939 17.5698C12.5277 17.5698 11.7188 17.0026 10.7482 16.2329C8.3621 19.2713 5.65245 21.9451 2.13395 24.3758C2.01262 24.4973 1.89129 24.4973 1.76996 24.3353L0.961113 23.4035ZM29.8775 4.03887C29.7158 3.91734 29.7158 3.7958 29.7967 3.63376L30.4033 2.66148C30.4842 2.53994 30.6055 2.45892 30.7673 2.49943C32.6681 3.22864 33.8409 3.87683 35.0946 4.93013C36.0653 5.78088 36.591 6.71265 36.591 7.88749C36.591 8.65721 36.227 9.34591 35.5395 9.34591C35.0946 9.34591 34.7711 8.85977 34.124 7.96851L33.8814 7.64442C33.6791 7.36084 33.7196 7.44186 33.4769 7.15828C32.7085 6.22651 32.021 5.45679 29.8775 4.03887Z" fill="black"/>
</svg>
